<?xml version="1.0" encoding="UTF-8" standalone="no"?>
<svg
   width="79.737831mm"
   height="89.530159mm"
   viewBox="0 0 301.37133 338.38171"
   version="1.1"
   id="svg159"
   sodipodi:docname="asm.svg"
   inkscape:version="1.2.2 (b0a8486541, 2022-12-01, custom)"
   xmlns:inkscape="http://www.inkscape.org/namespaces/inkscape"
   xmlns:sodipodi="http://sodipodi.sourceforge.net/DTD/sodipodi-0.dtd"
   xmlns="http://www.w3.org/2000/svg"
   xmlns:svg="http://www.w3.org/2000/svg"
   xmlns:rdf="http://www.w3.org/1999/02/22-rdf-syntax-ns#"
   xmlns:cc="http://creativecommons.org/ns#"
   xmlns:dc="http://purl.org/dc/elements/1.1/">
  <defs
     id="defs163">
    <rect
       x="89.966309"
       y="112.94822"
       width="36.180119"
       height="64.046242"
       id="rect534" />
  </defs>
  <sodipodi:namedview
     id="namedview161"
     pagecolor="#ffffff"
     bordercolor="#666666"
     borderopacity="1.0"
     inkscape:showpageshadow="2"
     inkscape:pageopacity="0.0"
     inkscape:pagecheckerboard="0"
     inkscape:deskcolor="#d1d1d1"
     showgrid="false"
     inkscape:zoom="2.0649188"
     inkscape:cx="69.736397"
     inkscape:cy="259.33223"
     inkscape:window-width="1846"
     inkscape:window-height="1016"
     inkscape:window-x="74"
     inkscape:window-y="27"
     inkscape:window-maximized="1"
     inkscape:current-layer="Page-1"
     inkscape:document-units="mm" />
  <!-- Generator: Sketch 52 (66869) - http://www.bohemiancoding.com/sketch -->
  <title
     id="title148">c</title>
  <desc
     id="desc150">Created with Sketch.</desc>
  <g
     id="Page-1"
     stroke="none"
     stroke-width="1"
     fill="none"
     fill-rule="evenodd"
     transform="translate(-124.59686,-51.047048)">
    <path
       d="m 425.95289,150.53132 c -0.003,-5.69022 -1.22079,-10.71778 -3.68355,-15.03215 -2.41922,-4.24387 -6.04391,-7.79923 -10.90352,-10.61203 -40.12124,-23.11101 -80.28132,-46.151522 -120.38844,-69.286031 -10.81287,-6.235391 -21.29729,-6.008628 -32.03012,0.317233 -15.96915,9.408896 -95.92202,55.170338 -119.74684,68.955878 -9.81105,5.67494 -14.5859,14.3589 -14.58826,25.64652 -0.0153,46.47816 0,92.95397 -0.0153,139.4333 0.002,5.5645 1.16899,10.49454 3.52345,14.74546 2.42039,4.37076 6.09453,8.02482 11.06716,10.90107 23.826,13.78553 103.78946,59.54345 119.75509,68.9547 10.73753,6.32938 21.22195,6.55497 32.03835,0.31723 40.10829,-23.13568 80.27073,-46.17502 120.39785,-69.28604 4.97262,-2.87507 8.64676,-6.53147 11.06716,-10.89871 2.35093,-4.25092 3.51992,-9.18096 3.52227,-14.74664 0,0 0,-92.93046 -0.0153,-139.40979"
       id="Path"
       fill="#a9b9cb"
       style="stroke-width:1.3218;fill:#ff9999;fill-opacity:1" />
    <path
       d="m 290.70544,55.904243 c -10.79521,-6.220117 -21.26198,-5.993354 -31.97715,0.316058 -15.94325,9.384221 -95.76545,55.026999 -119.55141,68.777289 -9.79575,5.65967 -14.56236,14.3213 -14.56472,25.57955 -0.0153,46.35714 0,92.7131 -0.0153,139.07141 0.002,5.55041 1.16664,10.46752 3.51757,14.70669 2.41686,4.36019 6.08511,8.00484 11.0495,10.87287 5.4494,3.15 13.84306,7.97547 23.73181,13.65277 L 383.14639,109.05957 C 352.32881,91.348567 321.503,73.651665 290.70544,55.904243"
       id="path153"
       fill="#7f8b99"
       style="stroke-width:1.3218;fill:#ff5555" />
    <text
       xml:space="preserve"
       style="font-style:normal;font-weight:normal;font-size:40px;line-height:1.25;font-family:sans-serif;fill:#ffffff;fill-opacity:1;stroke:none"
       x="159.70459"
       y="248.39812"
       id="text530"><tspan
         sodipodi:role="line"
         id="tspan528"
         x="159.70459"
         y="248.39812"
         style="font-style:normal;font-variant:normal;font-weight:bold;font-stretch:normal;font-size:96px;font-family:sans-serif;-inkscape-font-specification:'sans-serif, Bold';font-variant-ligatures:normal;font-variant-caps:normal;font-variant-numeric:normal;font-variant-east-asian:normal;fill:#ffffff">ASM</tspan></text>
    <text
       xml:space="preserve"
       id="text532"
       style="font-style:normal;font-weight:normal;font-size:40px;line-height:1.25;font-family:sans-serif;white-space:pre;shape-inside:url(#rect534);display:inline;fill:#000000;fill-opacity:1;stroke:none" />
  </g>
  <metadata
     id="metadata227">
    <rdf:RDF>
      <cc:Work
         rdf:about="">
        <dc:title>c</dc:title>
      </cc:Work>
    </rdf:RDF>
  </metadata>
</svg>
