<?xml version="1.0" encoding="UTF-8" standalone="no"?>
<svg
   width="228px"
   height="256px"
   viewBox="0 0 228 256"
   version="1.1"
   id="svg159"
   sodipodi:docname="H.svg"
   inkscape:version="1.2.2 (b0a8486541, 2022-12-01)"
   xmlns:inkscape="http://www.inkscape.org/namespaces/inkscape"
   xmlns:sodipodi="http://sodipodi.sourceforge.net/DTD/sodipodi-0.dtd"
   xmlns="http://www.w3.org/2000/svg"
   xmlns:svg="http://www.w3.org/2000/svg">
  <defs
     id="defs163">
    <rect
       x="89.966309"
       y="112.94822"
       width="36.18012"
       height="64.046241"
       id="rect534" />
  </defs>
  <sodipodi:namedview
     id="namedview161"
     pagecolor="#ffffff"
     bordercolor="#666666"
     borderopacity="1.0"
     inkscape:showpageshadow="2"
     inkscape:pageopacity="0.0"
     inkscape:pagecheckerboard="0"
     inkscape:deskcolor="#d1d1d1"
     showgrid="false"
     inkscape:zoom="3.1757812"
     inkscape:cx="114.30258"
     inkscape:cy="150.82903"
     inkscape:window-width="1850"
     inkscape:window-height="1131"
     inkscape:window-x="0"
     inkscape:window-y="0"
     inkscape:window-maximized="1"
     inkscape:current-layer="c" />
  <!-- Generator: Sketch 52 (66869) - http://www.bohemiancoding.com/sketch -->
  <title
     id="title148">c</title>
  <desc
     id="desc150">Created with Sketch.</desc>
  <g
     id="Page-1"
     stroke="none"
     stroke-width="1"
     fill="none"
     fill-rule="evenodd">
    <g
       id="c">
      <path
         d="M227.988422,75.264 C227.986641,70.9591111 227.064844,67.1555556 225.201656,63.8915556 C223.371422,60.6808889 220.629188,57.9911111 216.952687,55.8631111 C186.599297,38.3786667 156.216516,20.9475556 125.873812,3.44533333 C117.693422,-1.272 109.761516,-1.10044444 101.641687,3.68533333 C89.5603594,10.8035556 29.0726719,45.424 11.0482031,55.8533333 C3.62573437,60.1466667 0.013359375,66.7164444 0.011578125,75.256 C0,110.418667 0.011578125,145.579556 0,180.743111 C0.00178125,184.952889 0.884390625,188.682667 2.66564062,191.898667 C4.49676563,195.205333 7.27640625,197.969778 11.0384062,200.145778 C29.0637656,210.575111 89.5594688,245.192889 101.638125,252.312889 C109.761516,257.101333 117.693422,257.272 125.876484,252.552889 C156.220078,235.049778 186.604641,217.619556 216.962484,200.135111 C220.724484,197.96 223.504125,195.193778 225.33525,191.889778 C227.113828,188.673778 227.998219,184.944 228,180.733333 C228,180.733333 228,110.427556 227.988422,75.264"
         id="Path"
         fill="#A9B9CB"
         style="fill:#ffb380" />
      <path
         d="M125.668078,3.67466667 C117.501047,-1.03111111 109.5825,-0.859555556 101.476031,3.91377778 C89.4142969,11.0133333 29.0254687,45.544 11.0303906,55.9466667 C3.6195,60.2284444 0.013359375,66.7813333 0.011578125,75.2986667 C0,110.369778 0.011578125,145.44 0,180.512 C0.00178125,184.711111 0.882609375,188.431111 2.6611875,191.638222 C4.48964062,194.936889 7.26482812,197.694222 11.0205937,199.864 C15.1432969,202.247111 21.4934531,205.897778 28.9747031,210.192889 L195.603516,43.8888889 C172.288734,30.4897778 148.967719,17.1013333 125.668078,3.67466667"
         id="path153"
         fill="#7F8B99"
         style="fill:#d45500" />
    </g>
    <text
       xml:space="preserve"
       style="font-style:normal;font-weight:normal;font-size:40px;line-height:1.25;font-family:sans-serif;fill:#ffffff;fill-opacity:1;stroke:none"
       x="61.033314"
       y="176.0582"
       id="text530"><tspan
         sodipodi:role="line"
         id="tspan528"
         x="61.033314"
         y="176.0582"
         style="font-style:normal;font-variant:normal;font-weight:bold;font-stretch:normal;font-size:144px;font-family:sans-serif;-inkscape-font-specification:'sans-serif, Bold';font-variant-ligatures:normal;font-variant-caps:normal;font-variant-numeric:normal;font-variant-east-asian:normal;fill:#ffffff">H</tspan></text>
    <text
       xml:space="preserve"
       id="text532"
       style="fill:black;fill-opacity:1;line-height:1.25;stroke:none;font-family:sans-serif;font-style:normal;font-weight:normal;font-size:40px;white-space:pre;shape-inside:url(#rect534)" />
  </g>
</svg>
