<?xml version="1.0" encoding="UTF-8" standalone="no"?>
<!-- Generator: Adobe Illustrator 16.0.0, SVG Export Plug-In . SVG Version: 6.00 Build 0)  -->

<svg
   xmlns:dc="http://purl.org/dc/elements/1.1/"
   xmlns:cc="http://creativecommons.org/ns#"
   xmlns:rdf="http://www.w3.org/1999/02/22-rdf-syntax-ns#"
   xmlns:svg="http://www.w3.org/2000/svg"
   xmlns="http://www.w3.org/2000/svg"
   xmlns:sodipodi="http://sodipodi.sourceforge.net/DTD/sodipodi-0.dtd"
   xmlns:inkscape="http://www.inkscape.org/namespaces/inkscape"
   version="1.1"
   id="Capa_1"
   x="0px"
   y="0px"
   width="45.975px"
   height="45.975px"
   viewBox="0 0 45.975 45.975"
   style="enable-background:new 0 0 45.975 45.975;"
   xml:space="preserve"
   sodipodi:docname="pause.svg"
   inkscape:version="0.92.3 (2405546, 2018-03-11)"><metadata
   id="metadata45"><rdf:RDF><cc:Work
       rdf:about=""><dc:format>image/svg+xml</dc:format><dc:type
         rdf:resource="http://purl.org/dc/dcmitype/StillImage" /><dc:title></dc:title></cc:Work></rdf:RDF></metadata><defs
   id="defs43">
	

		
		
	</defs><sodipodi:namedview
   pagecolor="#000000"
   bordercolor="#666666"
   borderopacity="1"
   objecttolerance="10"
   gridtolerance="10"
   guidetolerance="10"
   inkscape:pageopacity="1"
   inkscape:pageshadow="2"
   inkscape:window-width="1853"
   inkscape:window-height="1016"
   id="namedview41"
   showgrid="false"
   inkscape:zoom="5.1332247"
   inkscape:cx="22.987499"
   inkscape:cy="22.987499"
   inkscape:window-x="67"
   inkscape:window-y="27"
   inkscape:window-maximized="1"
   inkscape:current-layer="Capa_1" />
<path
   d="m 13.987,0 c -2.762,0 -5,2.239 -5,5 v 35.975 c 0,2.763 2.238,5 5,5 2.762,0 5,-2.238 5,-5 V 5 c 0,-2.762 -2.237,-5 -5,-5 z"
   id="path2"
   inkscape:connector-curvature="0"
   style="fill:#ffffff;fill-opacity:1" /><path
   d="m 31.987,0 c -2.762,0 -5,2.239 -5,5 v 35.975 c 0,2.762 2.238,5 5,5 2.762,0 5,-2.238 5,-5 V 5 c 0,-2.761 -2.238,-5 -5,-5 z"
   id="path4"
   inkscape:connector-curvature="0"
   style="fill:#ffffff;fill-opacity:1" />
<g
   id="g10">
</g>
<g
   id="g12">
</g>
<g
   id="g14">
</g>
<g
   id="g16">
</g>
<g
   id="g18">
</g>
<g
   id="g20">
</g>
<g
   id="g22">
</g>
<g
   id="g24">
</g>
<g
   id="g26">
</g>
<g
   id="g28">
</g>
<g
   id="g30">
</g>
<g
   id="g32">
</g>
<g
   id="g34">
</g>
<g
   id="g36">
</g>
<g
   id="g38">
</g>
</svg>