<?xml version="1.0" encoding="UTF-8" standalone="no"?>
<svg
   xmlns:dc="http://purl.org/dc/elements/1.1/"
   xmlns:cc="http://creativecommons.org/ns#"
   xmlns:rdf="http://www.w3.org/1999/02/22-rdf-syntax-ns#"
   xmlns:svg="http://www.w3.org/2000/svg"
   xmlns="http://www.w3.org/2000/svg"
   id="svg10"
   enable-background="new 0 0 129 129"
   viewBox="0 0 129 129"
   version="1.1">
  <metadata
     id="metadata16">
    <rdf:RDF>
      <cc:Work
         rdf:about="">
        <dc:format>image/svg+xml</dc:format>
        <dc:type
           rdf:resource="http://purl.org/dc/dcmitype/StillImage" />
        <dc:title></dc:title>
      </cc:Work>
    </rdf:RDF>
  </metadata>
  <defs
     id="defs14" />
  <g
     style="fill:#ffffff;fill-opacity:1"
     id="g8">
    <g
       style="fill:#ffffff;fill-opacity:1"
       id="g6">
      <path
         style="fill:#ffffff;fill-opacity:1"
         id="path2"
         d="m64.5,122.4c31.9,0 57.9-26 57.9-57.9s-26-57.9-57.9-57.9-57.9,26-57.9,57.9 26,57.9 57.9,57.9zm0-107.7c27.4-3.55271e-15 49.8,22.3 49.8,49.8s-22.3,49.8-49.8,49.8-49.8-22.4-49.8-49.8 22.4-49.8 49.8-49.8z" />
      <path
         style="fill:#ffffff;fill-opacity:1"
         id="path4"
         d="M37.8,68h53.3c2.3,0,4.1-1.8,4.1-4.1s-1.8-4.1-4.1-4.1H37.8c-2.3,0-4.1,1.8-4.1,4.1S35.6,68,37.8,68z" />
    </g>
  </g>
</svg>
